<?xml version="1.0" encoding="UTF-8"?>
<svg xmlns="http://www.w3.org/2000/svg" xmlns:xlink="http://www.w3.org/1999/xlink" width="40px" height="40px" viewBox="0 0 40 40" version="1.1">
<g id="surface1">
<path style=" stroke:none;fill-rule:evenodd;fill:rgb(80.000001%,0%,0%);fill-opacity:1;" d="M 1.355469 40 L 15.199219 40 C 15.199219 40 12.550781 20.203125 21.3125 12.183594 C 23.222656 10.660156 29.304688 4.96875 39.253906 17.039062 C 39.570312 16.609375 39.871094 16.265625 39.871094 16.265625 C 39.871094 16.265625 30.757812 1.351562 20.613281 3.019531 C 15.5 3.765625 9.222656 11.382812 5.542969 21.4375 C 1.921875 31.332031 1.371094 39.734375 1.355469 39.996094 Z M 15.726562 34.25 C 15.761719 35.773438 15.847656 37.007812 15.933594 37.875 L 18.035156 39.109375 C 17.878906 37.988281 17.71875 36.722656 17.617188 35.375 Z M 3.023438 26.148438 L 1.007812 24.9375 C 0.675781 26.171875 0.304688 27.609375 0.128906 28.386719 L 2.144531 29.59375 C 2.371094 28.617188 2.742188 27.214844 3.023438 26.148438 Z M 8.3125 13.308594 L 7.066406 11.523438 C 6.613281 12.242188 6.175781 12.960938 5.769531 13.679688 L 7.121094 15.578125 C 7.492188 14.796875 7.890625 14.023438 8.3125 13.308594 Z M 15.988281 26.953125 L 17.40625 28.792969 C 17.476562 27.675781 17.601562 26.550781 17.773438 25.429688 L 16.515625 23.792969 C 16.285156 24.859375 16.128906 25.917969 15.988281 26.953125 Z M 18.527344 17.699219 L 19.371094 19.765625 C 19.667969 19.050781 20.015625 18.386719 20.402344 17.726562 L 19.613281 15.773438 C 19.210938 16.378906 18.84375 17.039062 18.527344 17.699219 Z M 14.9375 4.769531 L 14.148438 2.785156 C 13.710938 3.15625 13.253906 3.558594 12.777344 4.019531 L 13.582031 6.03125 C 14.042969 5.574219 14.480469 5.144531 14.9375 4.769531 Z M 22.890625 12.324219 L 23.296875 14.308594 C 23.804688 13.90625 24.3125 13.5625 24.820312 13.300781 L 24.433594 11.402344 C 23.839844 11.695312 23.328125 12.011719 22.890625 12.324219 Z M 22.050781 1.75 C 22.101562 1.75 22.171875 1.75 22.226562 1.75 L 21.875 0 C 21.332031 0 20.773438 0.0585938 20.195312 0.175781 L 20.527344 1.871094 C 21.035156 1.78125 21.542969 1.75 22.050781 1.75 Z M 28.535156 10.71875 L 28.464844 12.527344 C 29.042969 12.554688 29.621094 12.671875 30.195312 12.871094 L 30.269531 11.089844 C 29.671875 10.886719 29.09375 10.777344 28.535156 10.71875 Z M 30.195312 4.625 L 30.269531 2.699219 C 30.109375 2.554688 29.671875 2.210938 28.566406 1.691406 L 28.496094 3.589844 C 29.074219 3.910156 29.636719 4.253906 30.195312 4.625 Z M 30.195312 4.625 "/>
</g>
</svg>
