<?xml version="1.0" encoding="UTF-8"?>
<svg xmlns="http://www.w3.org/2000/svg" xmlns:xlink="http://www.w3.org/1999/xlink" width="40px" height="40px" viewBox="0 0 40 40" version="1.1">
<g id="surface1">
<path style=" stroke:none;fill-rule:nonzero;fill:rgb(38.82353%,35.686275%,100%);fill-opacity:1;" d="M 40 20 C 40 8.953125 31.046875 0 20 0 C 8.953125 0 0 8.953125 0 20 C 0 31.046875 8.953125 40 20 40 C 31.046875 40 40 31.046875 40 20 Z M 40 20 "/>
<path style=" stroke:none;fill-rule:nonzero;fill:rgb(100%,100%,100%);fill-opacity:1;" d="M 30.535156 20.148438 C 30.535156 18.648438 29.808594 17.464844 28.421875 17.464844 C 27.035156 17.464844 26.1875 18.648438 26.1875 20.132812 C 26.1875 21.894531 27.179688 22.785156 28.609375 22.785156 C 29.304688 22.785156 29.832031 22.628906 30.230469 22.40625 L 30.230469 21.234375 C 29.832031 21.433594 29.375 21.554688 28.796875 21.554688 C 28.226562 21.554688 27.722656 21.355469 27.660156 20.667969 L 30.523438 20.667969 C 30.523438 20.589844 30.535156 20.285156 30.535156 20.148438 Z M 27.644531 19.589844 C 27.644531 18.929688 28.046875 18.652344 28.414062 18.652344 C 28.773438 18.652344 29.152344 18.925781 29.152344 19.589844 Z M 23.925781 17.464844 C 23.5 17.464844 23.089844 17.628906 22.78125 17.921875 L 22.703125 17.558594 L 21.414062 17.558594 L 21.414062 24.382812 L 22.878906 24.074219 L 22.882812 22.417969 C 23.09375 22.570312 23.40625 22.785156 23.917969 22.785156 C 24.96875 22.785156 25.921875 21.941406 25.921875 20.085938 C 25.917969 18.390625 24.949219 17.464844 23.925781 17.464844 Z M 23.574219 21.5 C 23.230469 21.5 23.023438 21.375 22.886719 21.226562 L 22.878906 19.054688 C 23.03125 18.882812 23.242188 18.765625 23.574219 18.765625 C 24.109375 18.765625 24.476562 19.363281 24.476562 20.128906 C 24.476562 20.914062 24.113281 21.5 23.574219 21.5 Z M 19.402344 17.121094 L 20.871094 16.804688 L 20.871094 15.617188 L 19.402344 15.925781 Z M 19.402344 17.566406 L 20.871094 17.566406 L 20.871094 22.6875 L 19.402344 22.6875 Z M 17.828125 18 L 17.734375 17.566406 L 16.472656 17.566406 L 16.472656 22.6875 L 17.933594 22.6875 L 17.933594 19.214844 C 18.28125 18.765625 18.863281 18.847656 19.046875 18.910156 L 19.046875 17.566406 C 18.859375 17.496094 18.175781 17.367188 17.828125 18 Z M 14.902344 16.296875 L 13.476562 16.601562 L 13.46875 21.289062 C 13.46875 22.15625 14.121094 22.792969 14.988281 22.792969 C 15.464844 22.792969 15.816406 22.703125 16.011719 22.601562 L 16.011719 21.410156 C 15.824219 21.488281 14.898438 21.753906 14.898438 20.890625 L 14.898438 18.8125 L 16.011719 18.8125 L 16.011719 17.566406 L 14.898438 17.566406 Z M 10.945312 19.050781 C 10.945312 18.824219 11.132812 18.734375 11.445312 18.734375 C 11.949219 18.746094 12.445312 18.875 12.894531 19.109375 L 12.894531 17.734375 C 12.433594 17.550781 11.941406 17.460938 11.445312 17.464844 C 10.257812 17.464844 9.46875 18.085938 9.46875 19.121094 C 9.46875 20.738281 11.691406 20.480469 11.691406 21.175781 C 11.691406 21.445312 11.457031 21.53125 11.128906 21.53125 C 10.644531 21.53125 10.023438 21.335938 9.53125 21.0625 L 9.53125 22.457031 C 10.035156 22.675781 10.578125 22.789062 11.128906 22.789062 C 12.347656 22.789062 13.183594 22.1875 13.183594 21.140625 C 13.175781 19.398438 10.945312 19.707031 10.945312 19.050781 Z M 10.945312 19.050781 "/>
</g>
</svg>
